<mxfile host="app.diagrams.net" agent="Mozilla/5.0 (Windows NT 10.0; Win64; x64; rv:131.0) Gecko/20100101 Firefox/131.0" version="24.8.6">
  <diagram name="Page-1" id="xCm7L2kwBDL57Lj5noG_">
    <mxGraphModel dx="512" dy="276" grid="1" gridSize="10" guides="1" tooltips="1" connect="1" arrows="1" fold="1" page="1" pageScale="1" pageWidth="850" pageHeight="1100" math="0" shadow="0">
      <root>
        <mxCell id="0" />
        <mxCell id="1" parent="0" />
        <mxCell id="MRHMiCPDbe1n-ZCdfk0V-35" value="" style="edgeStyle=orthogonalEdgeStyle;rounded=0;orthogonalLoop=1;jettySize=auto;html=1;startArrow=classic;startFill=1;endArrow=none;endFill=0;" edge="1" parent="1" source="MRHMiCPDbe1n-ZCdfk0V-14" target="MRHMiCPDbe1n-ZCdfk0V-17">
          <mxGeometry relative="1" as="geometry" />
        </mxCell>
        <mxCell id="MRHMiCPDbe1n-ZCdfk0V-144" style="edgeStyle=orthogonalEdgeStyle;rounded=0;orthogonalLoop=1;jettySize=auto;html=1;exitX=1;exitY=0;exitDx=0;exitDy=0;entryX=0;entryY=0.5;entryDx=0;entryDy=0;" edge="1" parent="1" source="MRHMiCPDbe1n-ZCdfk0V-14" target="MRHMiCPDbe1n-ZCdfk0V-143">
          <mxGeometry relative="1" as="geometry">
            <Array as="points">
              <mxPoint x="540" y="240" />
              <mxPoint x="690" y="240" />
              <mxPoint x="690" y="160" />
              <mxPoint x="850" y="160" />
              <mxPoint x="850" y="138" />
            </Array>
          </mxGeometry>
        </mxCell>
        <mxCell id="MRHMiCPDbe1n-ZCdfk0V-14" value="Freddy (Pos 1)&lt;br&gt;Freddy (Pos 2)&lt;br&gt;Marion (Pos 1)&lt;br&gt;Marion (Pos 2)" style="rounded=0;whiteSpace=wrap;html=1;" vertex="1" parent="1">
          <mxGeometry x="400" y="250" width="140" height="60" as="geometry" />
        </mxCell>
        <mxCell id="MRHMiCPDbe1n-ZCdfk0V-38" style="edgeStyle=orthogonalEdgeStyle;rounded=0;orthogonalLoop=1;jettySize=auto;html=1;exitX=0.5;exitY=1;exitDx=0;exitDy=0;entryX=0.25;entryY=0;entryDx=0;entryDy=0;startArrow=classic;startFill=1;" edge="1" parent="1" source="MRHMiCPDbe1n-ZCdfk0V-15" target="MRHMiCPDbe1n-ZCdfk0V-14">
          <mxGeometry relative="1" as="geometry">
            <Array as="points">
              <mxPoint x="430" y="240" />
              <mxPoint x="435" y="240" />
            </Array>
          </mxGeometry>
        </mxCell>
        <mxCell id="MRHMiCPDbe1n-ZCdfk0V-42" style="edgeStyle=orthogonalEdgeStyle;rounded=0;orthogonalLoop=1;jettySize=auto;html=1;exitX=0;exitY=0.25;exitDx=0;exitDy=0;entryX=1;entryY=0.5;entryDx=0;entryDy=0;" edge="1" parent="1" source="MRHMiCPDbe1n-ZCdfk0V-15">
          <mxGeometry relative="1" as="geometry">
            <mxPoint x="371" y="150" as="targetPoint" />
          </mxGeometry>
        </mxCell>
        <mxCell id="MRHMiCPDbe1n-ZCdfk0V-15" value="&lt;div&gt;Freddy&lt;/div&gt;&lt;div&gt;Marion&lt;/div&gt;" style="rounded=0;whiteSpace=wrap;html=1;" vertex="1" parent="1">
          <mxGeometry x="400" y="170" width="60" height="60" as="geometry" />
        </mxCell>
        <mxCell id="MRHMiCPDbe1n-ZCdfk0V-37" style="edgeStyle=orthogonalEdgeStyle;rounded=0;orthogonalLoop=1;jettySize=auto;html=1;exitX=0.5;exitY=1;exitDx=0;exitDy=0;entryX=0.75;entryY=0;entryDx=0;entryDy=0;startArrow=none;startFill=0;" edge="1" parent="1" source="MRHMiCPDbe1n-ZCdfk0V-16" target="MRHMiCPDbe1n-ZCdfk0V-14">
          <mxGeometry relative="1" as="geometry">
            <Array as="points">
              <mxPoint x="510" y="240" />
              <mxPoint x="505" y="240" />
            </Array>
          </mxGeometry>
        </mxCell>
        <mxCell id="MRHMiCPDbe1n-ZCdfk0V-75" style="edgeStyle=orthogonalEdgeStyle;rounded=0;orthogonalLoop=1;jettySize=auto;html=1;exitX=1;exitY=0.75;exitDx=0;exitDy=0;entryX=0.5;entryY=1;entryDx=0;entryDy=0;" edge="1" parent="1" source="MRHMiCPDbe1n-ZCdfk0V-16" target="MRHMiCPDbe1n-ZCdfk0V-72">
          <mxGeometry relative="1" as="geometry" />
        </mxCell>
        <mxCell id="MRHMiCPDbe1n-ZCdfk0V-16" value="Freddy" style="rounded=0;whiteSpace=wrap;html=1;" vertex="1" parent="1">
          <mxGeometry x="480" y="170" width="60" height="60" as="geometry" />
        </mxCell>
        <mxCell id="MRHMiCPDbe1n-ZCdfk0V-39" style="edgeStyle=orthogonalEdgeStyle;rounded=0;orthogonalLoop=1;jettySize=auto;html=1;exitX=0.5;exitY=1;exitDx=0;exitDy=0;entryX=0.5;entryY=0;entryDx=0;entryDy=0;startArrow=classic;startFill=1;endArrow=none;endFill=0;" edge="1" parent="1" source="MRHMiCPDbe1n-ZCdfk0V-17" target="MRHMiCPDbe1n-ZCdfk0V-18">
          <mxGeometry relative="1" as="geometry" />
        </mxCell>
        <mxCell id="MRHMiCPDbe1n-ZCdfk0V-78" style="edgeStyle=orthogonalEdgeStyle;rounded=0;orthogonalLoop=1;jettySize=auto;html=1;exitX=1;exitY=0.5;exitDx=0;exitDy=0;entryX=0;entryY=0.5;entryDx=0;entryDy=0;" edge="1" parent="1" source="MRHMiCPDbe1n-ZCdfk0V-17" target="MRHMiCPDbe1n-ZCdfk0V-73">
          <mxGeometry relative="1" as="geometry" />
        </mxCell>
        <mxCell id="MRHMiCPDbe1n-ZCdfk0V-17" value="Marion" style="rounded=0;whiteSpace=wrap;html=1;" vertex="1" parent="1">
          <mxGeometry x="560" y="250" width="60" height="60" as="geometry" />
        </mxCell>
        <mxCell id="MRHMiCPDbe1n-ZCdfk0V-82" value="" style="edgeStyle=orthogonalEdgeStyle;rounded=0;orthogonalLoop=1;jettySize=auto;html=1;" edge="1" parent="1" source="MRHMiCPDbe1n-ZCdfk0V-18" target="MRHMiCPDbe1n-ZCdfk0V-74">
          <mxGeometry relative="1" as="geometry">
            <Array as="points">
              <mxPoint x="630" y="360" />
              <mxPoint x="630" y="358" />
            </Array>
          </mxGeometry>
        </mxCell>
        <mxCell id="MRHMiCPDbe1n-ZCdfk0V-18" value="Marion" style="rounded=0;whiteSpace=wrap;html=1;" vertex="1" parent="1">
          <mxGeometry x="560" y="330" width="60" height="60" as="geometry" />
        </mxCell>
        <mxCell id="MRHMiCPDbe1n-ZCdfk0V-34" style="edgeStyle=orthogonalEdgeStyle;rounded=0;orthogonalLoop=1;jettySize=auto;html=1;exitX=0.5;exitY=0;exitDx=0;exitDy=0;entryX=0.75;entryY=1;entryDx=0;entryDy=0;startArrow=classic;startFill=1;" edge="1" parent="1" source="MRHMiCPDbe1n-ZCdfk0V-19" target="MRHMiCPDbe1n-ZCdfk0V-14">
          <mxGeometry relative="1" as="geometry">
            <Array as="points">
              <mxPoint x="510" y="330" />
              <mxPoint x="505" y="330" />
            </Array>
          </mxGeometry>
        </mxCell>
        <mxCell id="MRHMiCPDbe1n-ZCdfk0V-103" style="edgeStyle=orthogonalEdgeStyle;rounded=0;orthogonalLoop=1;jettySize=auto;html=1;exitX=0.5;exitY=1;exitDx=0;exitDy=0;entryX=0.5;entryY=0;entryDx=0;entryDy=0;" edge="1" parent="1" source="MRHMiCPDbe1n-ZCdfk0V-19" target="MRHMiCPDbe1n-ZCdfk0V-97">
          <mxGeometry relative="1" as="geometry" />
        </mxCell>
        <mxCell id="MRHMiCPDbe1n-ZCdfk0V-19" value="Freddy&lt;br&gt;(or)&lt;br&gt;Marion" style="rounded=0;whiteSpace=wrap;html=1;" vertex="1" parent="1">
          <mxGeometry x="480" y="350" width="60" height="60" as="geometry" />
        </mxCell>
        <mxCell id="MRHMiCPDbe1n-ZCdfk0V-32" value="" style="edgeStyle=orthogonalEdgeStyle;rounded=0;orthogonalLoop=1;jettySize=auto;html=1;startArrow=classic;startFill=1;" edge="1" parent="1" source="MRHMiCPDbe1n-ZCdfk0V-20" target="MRHMiCPDbe1n-ZCdfk0V-19">
          <mxGeometry relative="1" as="geometry" />
        </mxCell>
        <mxCell id="MRHMiCPDbe1n-ZCdfk0V-20" value="Office&lt;br&gt;(player)" style="rounded=0;whiteSpace=wrap;html=1;" vertex="1" parent="1">
          <mxGeometry x="390" y="335" width="60" height="60" as="geometry" />
        </mxCell>
        <mxCell id="MRHMiCPDbe1n-ZCdfk0V-28" style="edgeStyle=orthogonalEdgeStyle;rounded=0;orthogonalLoop=1;jettySize=auto;html=1;exitX=0.5;exitY=1;exitDx=0;exitDy=0;entryX=0.5;entryY=0;entryDx=0;entryDy=0;startArrow=classic;startFill=1;" edge="1" parent="1" source="MRHMiCPDbe1n-ZCdfk0V-21" target="MRHMiCPDbe1n-ZCdfk0V-27">
          <mxGeometry relative="1" as="geometry" />
        </mxCell>
        <mxCell id="MRHMiCPDbe1n-ZCdfk0V-109" style="edgeStyle=orthogonalEdgeStyle;rounded=0;orthogonalLoop=1;jettySize=auto;html=1;exitX=0;exitY=0.25;exitDx=0;exitDy=0;entryX=1;entryY=0.5;entryDx=0;entryDy=0;" edge="1" parent="1" source="MRHMiCPDbe1n-ZCdfk0V-21" target="MRHMiCPDbe1n-ZCdfk0V-108">
          <mxGeometry relative="1" as="geometry" />
        </mxCell>
        <mxCell id="MRHMiCPDbe1n-ZCdfk0V-21" value="&lt;div&gt;Freddy&lt;/div&gt;&lt;div&gt;(or)&lt;br&gt;Marion&lt;br&gt;&lt;/div&gt;&lt;div&gt;Foxy&lt;/div&gt;" style="rounded=0;whiteSpace=wrap;html=1;" vertex="1" parent="1">
          <mxGeometry x="310" y="250" width="60" height="60" as="geometry" />
        </mxCell>
        <mxCell id="MRHMiCPDbe1n-ZCdfk0V-29" style="edgeStyle=orthogonalEdgeStyle;rounded=0;orthogonalLoop=1;jettySize=auto;html=1;exitX=1;exitY=0.5;exitDx=0;exitDy=0;entryX=0;entryY=0.5;entryDx=0;entryDy=0;startArrow=classic;startFill=1;" edge="1" parent="1" source="MRHMiCPDbe1n-ZCdfk0V-27" target="MRHMiCPDbe1n-ZCdfk0V-20">
          <mxGeometry relative="1" as="geometry" />
        </mxCell>
        <mxCell id="MRHMiCPDbe1n-ZCdfk0V-128" style="edgeStyle=orthogonalEdgeStyle;rounded=0;orthogonalLoop=1;jettySize=auto;html=1;exitX=0.5;exitY=1;exitDx=0;exitDy=0;entryX=0.5;entryY=0;entryDx=0;entryDy=0;" edge="1" parent="1" target="MRHMiCPDbe1n-ZCdfk0V-127">
          <mxGeometry relative="1" as="geometry">
            <mxPoint x="282.5" y="385" as="sourcePoint" />
          </mxGeometry>
        </mxCell>
        <mxCell id="MRHMiCPDbe1n-ZCdfk0V-27" value="Foxy (In Action)&lt;br&gt;Freddy&lt;br&gt;Marionette" style="rounded=0;whiteSpace=wrap;html=1;" vertex="1" parent="1">
          <mxGeometry x="260" y="335" width="90" height="50" as="geometry" />
        </mxCell>
        <mxCell id="MRHMiCPDbe1n-ZCdfk0V-30" value="" style="endArrow=classic;startArrow=classic;html=1;rounded=0;exitX=1;exitY=0.5;exitDx=0;exitDy=0;entryX=0;entryY=0.5;entryDx=0;entryDy=0;" edge="1" parent="1" source="MRHMiCPDbe1n-ZCdfk0V-21" target="MRHMiCPDbe1n-ZCdfk0V-14">
          <mxGeometry width="50" height="50" relative="1" as="geometry">
            <mxPoint x="440" y="350" as="sourcePoint" />
            <mxPoint x="490" y="300" as="targetPoint" />
          </mxGeometry>
        </mxCell>
        <mxCell id="MRHMiCPDbe1n-ZCdfk0V-31" value="" style="endArrow=classic;startArrow=classic;html=1;rounded=0;exitX=0.25;exitY=1;exitDx=0;exitDy=0;entryX=0.5;entryY=0;entryDx=0;entryDy=0;" edge="1" parent="1" source="MRHMiCPDbe1n-ZCdfk0V-14" target="MRHMiCPDbe1n-ZCdfk0V-20">
          <mxGeometry width="50" height="50" relative="1" as="geometry">
            <mxPoint x="410" y="320" as="sourcePoint" />
            <mxPoint x="440" y="320" as="targetPoint" />
          </mxGeometry>
        </mxCell>
        <mxCell id="MRHMiCPDbe1n-ZCdfk0V-138" style="edgeStyle=orthogonalEdgeStyle;rounded=0;orthogonalLoop=1;jettySize=auto;html=1;exitX=0.5;exitY=1;exitDx=0;exitDy=0;entryX=0.5;entryY=0;entryDx=0;entryDy=0;" edge="1" parent="1" source="MRHMiCPDbe1n-ZCdfk0V-40" target="MRHMiCPDbe1n-ZCdfk0V-137">
          <mxGeometry relative="1" as="geometry" />
        </mxCell>
        <mxCell id="MRHMiCPDbe1n-ZCdfk0V-40" value="Back Office&lt;br&gt;(Bonnie)" style="rounded=0;whiteSpace=wrap;html=1;" vertex="1" parent="1">
          <mxGeometry x="390" y="395" width="60" height="60" as="geometry" />
        </mxCell>
        <mxCell id="MRHMiCPDbe1n-ZCdfk0V-53" style="edgeStyle=orthogonalEdgeStyle;rounded=0;orthogonalLoop=1;jettySize=auto;html=1;exitX=0;exitY=0.5;exitDx=0;exitDy=0;entryX=0.5;entryY=1;entryDx=0;entryDy=0;" edge="1" parent="1" source="MRHMiCPDbe1n-ZCdfk0V-45" target="MRHMiCPDbe1n-ZCdfk0V-49">
          <mxGeometry relative="1" as="geometry" />
        </mxCell>
        <mxCell id="MRHMiCPDbe1n-ZCdfk0V-54" style="edgeStyle=orthogonalEdgeStyle;rounded=0;orthogonalLoop=1;jettySize=auto;html=1;exitX=0.5;exitY=0;exitDx=0;exitDy=0;entryX=0.5;entryY=1;entryDx=0;entryDy=0;" edge="1" parent="1" source="MRHMiCPDbe1n-ZCdfk0V-45" target="MRHMiCPDbe1n-ZCdfk0V-51">
          <mxGeometry relative="1" as="geometry" />
        </mxCell>
        <mxCell id="MRHMiCPDbe1n-ZCdfk0V-55" style="edgeStyle=orthogonalEdgeStyle;rounded=0;orthogonalLoop=1;jettySize=auto;html=1;exitX=1;exitY=0.5;exitDx=0;exitDy=0;entryX=0.5;entryY=1;entryDx=0;entryDy=0;" edge="1" parent="1" source="MRHMiCPDbe1n-ZCdfk0V-45" target="MRHMiCPDbe1n-ZCdfk0V-50">
          <mxGeometry relative="1" as="geometry" />
        </mxCell>
        <mxCell id="MRHMiCPDbe1n-ZCdfk0V-45" value="Needed&lt;br&gt;States" style="shape=process;whiteSpace=wrap;html=1;backgroundOutline=1;" vertex="1" parent="1">
          <mxGeometry x="340" y="120" width="65" height="30" as="geometry" />
        </mxCell>
        <mxCell id="MRHMiCPDbe1n-ZCdfk0V-49" value="Freddy" style="shape=parallelogram;perimeter=parallelogramPerimeter;whiteSpace=wrap;html=1;fixedSize=1;" vertex="1" parent="1">
          <mxGeometry x="260" y="65" width="80" height="25" as="geometry" />
        </mxCell>
        <mxCell id="MRHMiCPDbe1n-ZCdfk0V-50" value="Marion" style="shape=parallelogram;perimeter=parallelogramPerimeter;whiteSpace=wrap;html=1;fixedSize=1;" vertex="1" parent="1">
          <mxGeometry x="390" y="65" width="80" height="25" as="geometry" />
        </mxCell>
        <mxCell id="MRHMiCPDbe1n-ZCdfk0V-51" value="Freddy &lt;br&gt;Marion" style="shape=parallelogram;perimeter=parallelogramPerimeter;whiteSpace=wrap;html=1;fixedSize=1;" vertex="1" parent="1">
          <mxGeometry x="325" y="60" width="80" height="30" as="geometry" />
        </mxCell>
        <mxCell id="MRHMiCPDbe1n-ZCdfk0V-57" value="Empty" style="shape=parallelogram;perimeter=parallelogramPerimeter;whiteSpace=wrap;html=1;fixedSize=1;" vertex="1" parent="1">
          <mxGeometry x="210" y="125" width="80" height="25" as="geometry" />
        </mxCell>
        <mxCell id="MRHMiCPDbe1n-ZCdfk0V-58" style="edgeStyle=orthogonalEdgeStyle;rounded=0;orthogonalLoop=1;jettySize=auto;html=1;exitX=0;exitY=0.75;exitDx=0;exitDy=0;entryX=0.893;entryY=0.643;entryDx=0;entryDy=0;entryPerimeter=0;" edge="1" parent="1" source="MRHMiCPDbe1n-ZCdfk0V-45" target="MRHMiCPDbe1n-ZCdfk0V-57">
          <mxGeometry relative="1" as="geometry" />
        </mxCell>
        <mxCell id="MRHMiCPDbe1n-ZCdfk0V-59" value="Freddy" style="shape=parallelogram;perimeter=parallelogramPerimeter;whiteSpace=wrap;html=1;fixedSize=1;" vertex="1" parent="1">
          <mxGeometry x="540" y="95" width="80" height="25" as="geometry" />
        </mxCell>
        <mxCell id="MRHMiCPDbe1n-ZCdfk0V-60" value="Empty" style="shape=parallelogram;perimeter=parallelogramPerimeter;whiteSpace=wrap;html=1;fixedSize=1;" vertex="1" parent="1">
          <mxGeometry x="605" y="95" width="80" height="25" as="geometry" />
        </mxCell>
        <mxCell id="MRHMiCPDbe1n-ZCdfk0V-63" value="Empty" style="shape=parallelogram;perimeter=parallelogramPerimeter;whiteSpace=wrap;html=1;fixedSize=1;" vertex="1" parent="1">
          <mxGeometry x="740" y="250" width="80" height="25" as="geometry" />
        </mxCell>
        <mxCell id="MRHMiCPDbe1n-ZCdfk0V-64" value="Marion" style="shape=parallelogram;perimeter=parallelogramPerimeter;whiteSpace=wrap;html=1;fixedSize=1;" vertex="1" parent="1">
          <mxGeometry x="750" y="280" width="80" height="30" as="geometry" />
        </mxCell>
        <mxCell id="MRHMiCPDbe1n-ZCdfk0V-68" value="Empty" style="shape=parallelogram;perimeter=parallelogramPerimeter;whiteSpace=wrap;html=1;fixedSize=1;" vertex="1" parent="1">
          <mxGeometry x="750" y="335" width="80" height="25" as="geometry" />
        </mxCell>
        <mxCell id="MRHMiCPDbe1n-ZCdfk0V-69" value="Marion" style="shape=parallelogram;perimeter=parallelogramPerimeter;whiteSpace=wrap;html=1;fixedSize=1;" vertex="1" parent="1">
          <mxGeometry x="720" y="367.5" width="80" height="25" as="geometry" />
        </mxCell>
        <mxCell id="MRHMiCPDbe1n-ZCdfk0V-76" style="edgeStyle=orthogonalEdgeStyle;rounded=0;orthogonalLoop=1;jettySize=auto;html=1;exitX=0.75;exitY=0;exitDx=0;exitDy=0;entryX=0.5;entryY=1;entryDx=0;entryDy=0;" edge="1" parent="1" source="MRHMiCPDbe1n-ZCdfk0V-72" target="MRHMiCPDbe1n-ZCdfk0V-60">
          <mxGeometry relative="1" as="geometry" />
        </mxCell>
        <mxCell id="MRHMiCPDbe1n-ZCdfk0V-77" style="edgeStyle=orthogonalEdgeStyle;rounded=0;orthogonalLoop=1;jettySize=auto;html=1;exitX=0.25;exitY=0;exitDx=0;exitDy=0;entryX=0.5;entryY=1;entryDx=0;entryDy=0;" edge="1" parent="1" source="MRHMiCPDbe1n-ZCdfk0V-72" target="MRHMiCPDbe1n-ZCdfk0V-59">
          <mxGeometry relative="1" as="geometry" />
        </mxCell>
        <mxCell id="MRHMiCPDbe1n-ZCdfk0V-72" value="Needed&lt;br&gt;States" style="shape=process;whiteSpace=wrap;html=1;backgroundOutline=1;" vertex="1" parent="1">
          <mxGeometry x="570" y="160" width="65" height="30" as="geometry" />
        </mxCell>
        <mxCell id="MRHMiCPDbe1n-ZCdfk0V-79" style="edgeStyle=orthogonalEdgeStyle;rounded=0;orthogonalLoop=1;jettySize=auto;html=1;exitX=1;exitY=0.25;exitDx=0;exitDy=0;entryX=0;entryY=0.5;entryDx=0;entryDy=0;" edge="1" parent="1" source="MRHMiCPDbe1n-ZCdfk0V-73" target="MRHMiCPDbe1n-ZCdfk0V-63">
          <mxGeometry relative="1" as="geometry" />
        </mxCell>
        <mxCell id="MRHMiCPDbe1n-ZCdfk0V-80" style="edgeStyle=orthogonalEdgeStyle;rounded=0;orthogonalLoop=1;jettySize=auto;html=1;exitX=1;exitY=0.75;exitDx=0;exitDy=0;entryX=0;entryY=0.5;entryDx=0;entryDy=0;" edge="1" parent="1" source="MRHMiCPDbe1n-ZCdfk0V-73" target="MRHMiCPDbe1n-ZCdfk0V-64">
          <mxGeometry relative="1" as="geometry" />
        </mxCell>
        <mxCell id="MRHMiCPDbe1n-ZCdfk0V-73" value="Needed&lt;br&gt;States" style="shape=process;whiteSpace=wrap;html=1;backgroundOutline=1;" vertex="1" parent="1">
          <mxGeometry x="640" y="265" width="65" height="30" as="geometry" />
        </mxCell>
        <mxCell id="MRHMiCPDbe1n-ZCdfk0V-83" style="edgeStyle=orthogonalEdgeStyle;rounded=0;orthogonalLoop=1;jettySize=auto;html=1;exitX=1;exitY=0.25;exitDx=0;exitDy=0;entryX=0;entryY=0.25;entryDx=0;entryDy=0;" edge="1" parent="1" source="MRHMiCPDbe1n-ZCdfk0V-74" target="MRHMiCPDbe1n-ZCdfk0V-68">
          <mxGeometry relative="1" as="geometry" />
        </mxCell>
        <mxCell id="MRHMiCPDbe1n-ZCdfk0V-84" style="edgeStyle=orthogonalEdgeStyle;rounded=0;orthogonalLoop=1;jettySize=auto;html=1;exitX=1;exitY=0.75;exitDx=0;exitDy=0;entryX=0;entryY=0.5;entryDx=0;entryDy=0;" edge="1" parent="1" source="MRHMiCPDbe1n-ZCdfk0V-74" target="MRHMiCPDbe1n-ZCdfk0V-69">
          <mxGeometry relative="1" as="geometry" />
        </mxCell>
        <mxCell id="MRHMiCPDbe1n-ZCdfk0V-74" value="Needed&lt;br&gt;States" style="shape=process;whiteSpace=wrap;html=1;backgroundOutline=1;" vertex="1" parent="1">
          <mxGeometry x="650" y="342.5" width="65" height="30" as="geometry" />
        </mxCell>
        <mxCell id="MRHMiCPDbe1n-ZCdfk0V-105" style="edgeStyle=orthogonalEdgeStyle;rounded=0;orthogonalLoop=1;jettySize=auto;html=1;exitX=0.75;exitY=1;exitDx=0;exitDy=0;entryX=0.5;entryY=0;entryDx=0;entryDy=0;" edge="1" parent="1" source="MRHMiCPDbe1n-ZCdfk0V-97" target="MRHMiCPDbe1n-ZCdfk0V-99">
          <mxGeometry relative="1" as="geometry" />
        </mxCell>
        <mxCell id="MRHMiCPDbe1n-ZCdfk0V-106" style="edgeStyle=orthogonalEdgeStyle;rounded=0;orthogonalLoop=1;jettySize=auto;html=1;exitX=0.5;exitY=1;exitDx=0;exitDy=0;entryX=0.75;entryY=0;entryDx=0;entryDy=0;" edge="1" parent="1" source="MRHMiCPDbe1n-ZCdfk0V-97" target="MRHMiCPDbe1n-ZCdfk0V-98">
          <mxGeometry relative="1" as="geometry" />
        </mxCell>
        <mxCell id="MRHMiCPDbe1n-ZCdfk0V-107" style="edgeStyle=orthogonalEdgeStyle;rounded=0;orthogonalLoop=1;jettySize=auto;html=1;exitX=0;exitY=0.5;exitDx=0;exitDy=0;entryX=0.5;entryY=0;entryDx=0;entryDy=0;" edge="1" parent="1" source="MRHMiCPDbe1n-ZCdfk0V-97" target="MRHMiCPDbe1n-ZCdfk0V-101">
          <mxGeometry relative="1" as="geometry" />
        </mxCell>
        <mxCell id="MRHMiCPDbe1n-ZCdfk0V-97" value="Needed&lt;br&gt;States" style="shape=process;whiteSpace=wrap;html=1;backgroundOutline=1;" vertex="1" parent="1">
          <mxGeometry x="520" y="460" width="65" height="30" as="geometry" />
        </mxCell>
        <mxCell id="MRHMiCPDbe1n-ZCdfk0V-98" value="Freddy" style="shape=parallelogram;perimeter=parallelogramPerimeter;whiteSpace=wrap;html=1;fixedSize=1;" vertex="1" parent="1">
          <mxGeometry x="480" y="510" width="80" height="25" as="geometry" />
        </mxCell>
        <mxCell id="MRHMiCPDbe1n-ZCdfk0V-99" value="Marion" style="shape=parallelogram;perimeter=parallelogramPerimeter;whiteSpace=wrap;html=1;fixedSize=1;" vertex="1" parent="1">
          <mxGeometry x="540" y="510" width="80" height="25" as="geometry" />
        </mxCell>
        <mxCell id="MRHMiCPDbe1n-ZCdfk0V-101" value="Empty" style="shape=parallelogram;perimeter=parallelogramPerimeter;whiteSpace=wrap;html=1;fixedSize=1;" vertex="1" parent="1">
          <mxGeometry x="425" y="510" width="80" height="25" as="geometry" />
        </mxCell>
        <mxCell id="MRHMiCPDbe1n-ZCdfk0V-114" style="edgeStyle=orthogonalEdgeStyle;rounded=0;orthogonalLoop=1;jettySize=auto;html=1;exitX=0.5;exitY=1;exitDx=0;exitDy=0;entryX=1;entryY=0.75;entryDx=0;entryDy=0;" edge="1" parent="1" source="MRHMiCPDbe1n-ZCdfk0V-108" target="MRHMiCPDbe1n-ZCdfk0V-111">
          <mxGeometry relative="1" as="geometry" />
        </mxCell>
        <mxCell id="MRHMiCPDbe1n-ZCdfk0V-115" style="edgeStyle=orthogonalEdgeStyle;rounded=0;orthogonalLoop=1;jettySize=auto;html=1;exitX=0.5;exitY=0;exitDx=0;exitDy=0;entryX=1;entryY=0.5;entryDx=0;entryDy=0;" edge="1" parent="1" source="MRHMiCPDbe1n-ZCdfk0V-108" target="MRHMiCPDbe1n-ZCdfk0V-112">
          <mxGeometry relative="1" as="geometry" />
        </mxCell>
        <mxCell id="MRHMiCPDbe1n-ZCdfk0V-108" value="Needed&lt;br&gt;States" style="shape=process;whiteSpace=wrap;html=1;backgroundOutline=1;" vertex="1" parent="1">
          <mxGeometry x="217.5" y="250" width="65" height="30" as="geometry" />
        </mxCell>
        <mxCell id="MRHMiCPDbe1n-ZCdfk0V-126" style="edgeStyle=orthogonalEdgeStyle;rounded=0;orthogonalLoop=1;jettySize=auto;html=1;exitX=0;exitY=0.5;exitDx=0;exitDy=0;entryX=1;entryY=0.5;entryDx=0;entryDy=0;" edge="1" parent="1" source="MRHMiCPDbe1n-ZCdfk0V-111" target="MRHMiCPDbe1n-ZCdfk0V-125">
          <mxGeometry relative="1" as="geometry" />
        </mxCell>
        <mxCell id="MRHMiCPDbe1n-ZCdfk0V-111" value="Foxy" style="shape=process;whiteSpace=wrap;html=1;backgroundOutline=1;" vertex="1" parent="1">
          <mxGeometry x="160" y="300" width="65" height="30" as="geometry" />
        </mxCell>
        <mxCell id="MRHMiCPDbe1n-ZCdfk0V-122" style="edgeStyle=orthogonalEdgeStyle;rounded=0;orthogonalLoop=1;jettySize=auto;html=1;exitX=0.5;exitY=0;exitDx=0;exitDy=0;" edge="1" parent="1" target="MRHMiCPDbe1n-ZCdfk0V-117">
          <mxGeometry relative="1" as="geometry">
            <mxPoint x="187.5" y="202.5" as="sourcePoint" />
            <mxPoint x="110" y="185" as="targetPoint" />
            <Array as="points">
              <mxPoint x="188" y="182" />
            </Array>
          </mxGeometry>
        </mxCell>
        <mxCell id="MRHMiCPDbe1n-ZCdfk0V-123" style="edgeStyle=orthogonalEdgeStyle;rounded=0;orthogonalLoop=1;jettySize=auto;html=1;exitX=0;exitY=0.5;exitDx=0;exitDy=0;entryX=1;entryY=0.5;entryDx=0;entryDy=0;" edge="1" parent="1" source="MRHMiCPDbe1n-ZCdfk0V-112" target="MRHMiCPDbe1n-ZCdfk0V-118">
          <mxGeometry relative="1" as="geometry" />
        </mxCell>
        <mxCell id="MRHMiCPDbe1n-ZCdfk0V-124" style="edgeStyle=orthogonalEdgeStyle;rounded=0;orthogonalLoop=1;jettySize=auto;html=1;exitX=0.5;exitY=1;exitDx=0;exitDy=0;entryX=1;entryY=0.5;entryDx=0;entryDy=0;" edge="1" parent="1" source="MRHMiCPDbe1n-ZCdfk0V-112" target="MRHMiCPDbe1n-ZCdfk0V-120">
          <mxGeometry relative="1" as="geometry">
            <Array as="points">
              <mxPoint x="188" y="250" />
              <mxPoint x="130" y="250" />
              <mxPoint x="130" y="253" />
              <mxPoint x="100" y="253" />
            </Array>
          </mxGeometry>
        </mxCell>
        <mxCell id="MRHMiCPDbe1n-ZCdfk0V-112" value="MainRoom" style="shape=process;whiteSpace=wrap;html=1;backgroundOutline=1;" vertex="1" parent="1">
          <mxGeometry x="150" y="200" width="75" height="30" as="geometry" />
        </mxCell>
        <mxCell id="MRHMiCPDbe1n-ZCdfk0V-117" value="Freddy" style="shape=parallelogram;perimeter=parallelogramPerimeter;whiteSpace=wrap;html=1;fixedSize=1;" vertex="1" parent="1">
          <mxGeometry x="50" y="170" width="80" height="25" as="geometry" />
        </mxCell>
        <mxCell id="MRHMiCPDbe1n-ZCdfk0V-118" value="Empty" style="shape=parallelogram;perimeter=parallelogramPerimeter;whiteSpace=wrap;html=1;fixedSize=1;" vertex="1" parent="1">
          <mxGeometry x="40" y="202.5" width="80" height="25" as="geometry" />
        </mxCell>
        <mxCell id="MRHMiCPDbe1n-ZCdfk0V-120" value="Marion" style="shape=parallelogram;perimeter=parallelogramPerimeter;whiteSpace=wrap;html=1;fixedSize=1;" vertex="1" parent="1">
          <mxGeometry x="20" y="240" width="80" height="25" as="geometry" />
        </mxCell>
        <mxCell id="MRHMiCPDbe1n-ZCdfk0V-125" value="About 4" style="shape=parallelogram;perimeter=parallelogramPerimeter;whiteSpace=wrap;html=1;fixedSize=1;" vertex="1" parent="1">
          <mxGeometry x="50" y="302.5" width="80" height="25" as="geometry" />
        </mxCell>
        <mxCell id="MRHMiCPDbe1n-ZCdfk0V-133" style="edgeStyle=orthogonalEdgeStyle;rounded=0;orthogonalLoop=1;jettySize=auto;html=1;exitX=0;exitY=0.5;exitDx=0;exitDy=0;entryX=1;entryY=0.5;entryDx=0;entryDy=0;" edge="1" parent="1" source="MRHMiCPDbe1n-ZCdfk0V-127" target="MRHMiCPDbe1n-ZCdfk0V-132">
          <mxGeometry relative="1" as="geometry" />
        </mxCell>
        <mxCell id="MRHMiCPDbe1n-ZCdfk0V-134" style="edgeStyle=orthogonalEdgeStyle;rounded=0;orthogonalLoop=1;jettySize=auto;html=1;exitX=0.25;exitY=1;exitDx=0;exitDy=0;entryX=0.75;entryY=0;entryDx=0;entryDy=0;" edge="1" parent="1" source="MRHMiCPDbe1n-ZCdfk0V-127" target="MRHMiCPDbe1n-ZCdfk0V-129">
          <mxGeometry relative="1" as="geometry" />
        </mxCell>
        <mxCell id="MRHMiCPDbe1n-ZCdfk0V-135" style="edgeStyle=orthogonalEdgeStyle;rounded=0;orthogonalLoop=1;jettySize=auto;html=1;exitX=0.5;exitY=1;exitDx=0;exitDy=0;entryX=0.5;entryY=0;entryDx=0;entryDy=0;" edge="1" parent="1" source="MRHMiCPDbe1n-ZCdfk0V-127" target="MRHMiCPDbe1n-ZCdfk0V-130">
          <mxGeometry relative="1" as="geometry" />
        </mxCell>
        <mxCell id="MRHMiCPDbe1n-ZCdfk0V-136" style="edgeStyle=orthogonalEdgeStyle;rounded=0;orthogonalLoop=1;jettySize=auto;html=1;exitX=1;exitY=0.5;exitDx=0;exitDy=0;entryX=0.5;entryY=0;entryDx=0;entryDy=0;" edge="1" parent="1" source="MRHMiCPDbe1n-ZCdfk0V-127">
          <mxGeometry relative="1" as="geometry">
            <mxPoint x="350" y="470" as="targetPoint" />
          </mxGeometry>
        </mxCell>
        <mxCell id="MRHMiCPDbe1n-ZCdfk0V-127" value="Needed&lt;br&gt;States" style="shape=process;whiteSpace=wrap;html=1;backgroundOutline=1;" vertex="1" parent="1">
          <mxGeometry x="245" y="410" width="65" height="30" as="geometry" />
        </mxCell>
        <mxCell id="MRHMiCPDbe1n-ZCdfk0V-129" value="Marion" style="shape=parallelogram;perimeter=parallelogramPerimeter;whiteSpace=wrap;html=1;fixedSize=1;" vertex="1" parent="1">
          <mxGeometry x="167.5" y="470" width="80" height="25" as="geometry" />
        </mxCell>
        <mxCell id="MRHMiCPDbe1n-ZCdfk0V-130" value="Freddy" style="shape=parallelogram;perimeter=parallelogramPerimeter;whiteSpace=wrap;html=1;fixedSize=1;" vertex="1" parent="1">
          <mxGeometry x="237.5" y="470" width="80" height="25" as="geometry" />
        </mxCell>
        <mxCell id="MRHMiCPDbe1n-ZCdfk0V-131" value="Foxy" style="shape=parallelogram;perimeter=parallelogramPerimeter;whiteSpace=wrap;html=1;fixedSize=1;" vertex="1" parent="1">
          <mxGeometry x="310" y="470" width="80" height="25" as="geometry" />
        </mxCell>
        <mxCell id="MRHMiCPDbe1n-ZCdfk0V-132" value="Empty" style="shape=parallelogram;perimeter=parallelogramPerimeter;whiteSpace=wrap;html=1;fixedSize=1;" vertex="1" parent="1">
          <mxGeometry x="127.5" y="415" width="80" height="25" as="geometry" />
        </mxCell>
        <mxCell id="MRHMiCPDbe1n-ZCdfk0V-169" value="" style="edgeStyle=orthogonalEdgeStyle;rounded=0;orthogonalLoop=1;jettySize=auto;html=1;" edge="1" parent="1" source="MRHMiCPDbe1n-ZCdfk0V-137" target="MRHMiCPDbe1n-ZCdfk0V-140">
          <mxGeometry relative="1" as="geometry" />
        </mxCell>
        <mxCell id="MRHMiCPDbe1n-ZCdfk0V-137" value="Needed&lt;br&gt;States" style="shape=process;whiteSpace=wrap;html=1;backgroundOutline=1;" vertex="1" parent="1">
          <mxGeometry x="350" y="520" width="65" height="30" as="geometry" />
        </mxCell>
        <mxCell id="MRHMiCPDbe1n-ZCdfk0V-139" style="edgeStyle=orthogonalEdgeStyle;rounded=0;orthogonalLoop=1;jettySize=auto;html=1;exitX=0;exitY=0.5;exitDx=0;exitDy=0;entryX=1;entryY=0.5;entryDx=0;entryDy=0;" edge="1" parent="1" source="MRHMiCPDbe1n-ZCdfk0V-140" target="MRHMiCPDbe1n-ZCdfk0V-141">
          <mxGeometry relative="1" as="geometry" />
        </mxCell>
        <mxCell id="MRHMiCPDbe1n-ZCdfk0V-140" value="Bonnie" style="shape=process;whiteSpace=wrap;html=1;backgroundOutline=1;" vertex="1" parent="1">
          <mxGeometry x="350" y="580" width="65" height="30" as="geometry" />
        </mxCell>
        <mxCell id="MRHMiCPDbe1n-ZCdfk0V-141" value="About 3" style="shape=parallelogram;perimeter=parallelogramPerimeter;whiteSpace=wrap;html=1;fixedSize=1;" vertex="1" parent="1">
          <mxGeometry x="237.5" y="582.5" width="80" height="25" as="geometry" />
        </mxCell>
        <mxCell id="MRHMiCPDbe1n-ZCdfk0V-154" style="edgeStyle=orthogonalEdgeStyle;rounded=0;orthogonalLoop=1;jettySize=auto;html=1;exitX=0.5;exitY=0;exitDx=0;exitDy=0;entryX=0.5;entryY=1;entryDx=0;entryDy=0;" edge="1" parent="1" source="MRHMiCPDbe1n-ZCdfk0V-143" target="MRHMiCPDbe1n-ZCdfk0V-149">
          <mxGeometry relative="1" as="geometry" />
        </mxCell>
        <mxCell id="MRHMiCPDbe1n-ZCdfk0V-160" style="edgeStyle=orthogonalEdgeStyle;rounded=0;orthogonalLoop=1;jettySize=auto;html=1;exitX=0.75;exitY=1;exitDx=0;exitDy=0;entryX=0.5;entryY=0;entryDx=0;entryDy=0;" edge="1" parent="1" source="MRHMiCPDbe1n-ZCdfk0V-143" target="MRHMiCPDbe1n-ZCdfk0V-151">
          <mxGeometry relative="1" as="geometry" />
        </mxCell>
        <mxCell id="MRHMiCPDbe1n-ZCdfk0V-143" value="Needed&lt;br&gt;States" style="shape=process;whiteSpace=wrap;html=1;backgroundOutline=1;" vertex="1" parent="1">
          <mxGeometry x="870" y="122.5" width="65" height="30" as="geometry" />
        </mxCell>
        <mxCell id="MRHMiCPDbe1n-ZCdfk0V-145" value="Empty" style="shape=parallelogram;perimeter=parallelogramPerimeter;whiteSpace=wrap;html=1;fixedSize=1;" vertex="1" parent="1">
          <mxGeometry x="780" y="50" width="80" height="25" as="geometry" />
        </mxCell>
        <mxCell id="MRHMiCPDbe1n-ZCdfk0V-147" value="Freddy" style="shape=parallelogram;perimeter=parallelogramPerimeter;whiteSpace=wrap;html=1;fixedSize=1;fontStyle=0" vertex="1" parent="1">
          <mxGeometry x="860" y="35" width="80" height="25" as="geometry" />
        </mxCell>
        <mxCell id="MRHMiCPDbe1n-ZCdfk0V-148" value="Empty" style="shape=parallelogram;perimeter=parallelogramPerimeter;whiteSpace=wrap;html=1;fixedSize=1;" vertex="1" parent="1">
          <mxGeometry x="910" y="230" width="80" height="25" as="geometry" />
        </mxCell>
        <mxCell id="MRHMiCPDbe1n-ZCdfk0V-155" style="edgeStyle=orthogonalEdgeStyle;rounded=0;orthogonalLoop=1;jettySize=auto;html=1;exitX=0.5;exitY=0;exitDx=0;exitDy=0;entryX=0.5;entryY=1;entryDx=0;entryDy=0;" edge="1" parent="1" source="MRHMiCPDbe1n-ZCdfk0V-149" target="MRHMiCPDbe1n-ZCdfk0V-147">
          <mxGeometry relative="1" as="geometry" />
        </mxCell>
        <mxCell id="MRHMiCPDbe1n-ZCdfk0V-156" style="edgeStyle=orthogonalEdgeStyle;rounded=0;orthogonalLoop=1;jettySize=auto;html=1;exitX=1;exitY=0.5;exitDx=0;exitDy=0;entryX=0.5;entryY=1;entryDx=0;entryDy=0;" edge="1" parent="1" source="MRHMiCPDbe1n-ZCdfk0V-149" target="MRHMiCPDbe1n-ZCdfk0V-153">
          <mxGeometry relative="1" as="geometry" />
        </mxCell>
        <mxCell id="MRHMiCPDbe1n-ZCdfk0V-157" style="edgeStyle=orthogonalEdgeStyle;rounded=0;orthogonalLoop=1;jettySize=auto;html=1;exitX=0;exitY=0.5;exitDx=0;exitDy=0;entryX=0.5;entryY=1;entryDx=0;entryDy=0;" edge="1" parent="1" source="MRHMiCPDbe1n-ZCdfk0V-149" target="MRHMiCPDbe1n-ZCdfk0V-145">
          <mxGeometry relative="1" as="geometry">
            <mxPoint x="810" y="95.21951219512198" as="targetPoint" />
          </mxGeometry>
        </mxCell>
        <mxCell id="MRHMiCPDbe1n-ZCdfk0V-159" style="edgeStyle=orthogonalEdgeStyle;rounded=0;orthogonalLoop=1;jettySize=auto;html=1;exitX=0.75;exitY=0;exitDx=0;exitDy=0;entryX=0.5;entryY=1;entryDx=0;entryDy=0;" edge="1" parent="1" source="MRHMiCPDbe1n-ZCdfk0V-149" target="MRHMiCPDbe1n-ZCdfk0V-158">
          <mxGeometry relative="1" as="geometry" />
        </mxCell>
        <mxCell id="MRHMiCPDbe1n-ZCdfk0V-149" value="Front" style="shape=process;whiteSpace=wrap;html=1;backgroundOutline=1;" vertex="1" parent="1">
          <mxGeometry x="890" y="80" width="70" height="30" as="geometry" />
        </mxCell>
        <mxCell id="MRHMiCPDbe1n-ZCdfk0V-165" style="edgeStyle=orthogonalEdgeStyle;rounded=0;orthogonalLoop=1;jettySize=auto;html=1;exitX=1;exitY=0.5;exitDx=0;exitDy=0;entryX=0;entryY=0.5;entryDx=0;entryDy=0;" edge="1" parent="1" source="MRHMiCPDbe1n-ZCdfk0V-151" target="MRHMiCPDbe1n-ZCdfk0V-163">
          <mxGeometry relative="1" as="geometry" />
        </mxCell>
        <mxCell id="MRHMiCPDbe1n-ZCdfk0V-166" style="edgeStyle=orthogonalEdgeStyle;rounded=0;orthogonalLoop=1;jettySize=auto;html=1;exitX=0.75;exitY=1;exitDx=0;exitDy=0;entryX=0.5;entryY=0;entryDx=0;entryDy=0;" edge="1" parent="1" source="MRHMiCPDbe1n-ZCdfk0V-151" target="MRHMiCPDbe1n-ZCdfk0V-148">
          <mxGeometry relative="1" as="geometry" />
        </mxCell>
        <mxCell id="MRHMiCPDbe1n-ZCdfk0V-167" style="edgeStyle=orthogonalEdgeStyle;rounded=0;orthogonalLoop=1;jettySize=auto;html=1;exitX=0.25;exitY=1;exitDx=0;exitDy=0;entryX=0.75;entryY=0;entryDx=0;entryDy=0;" edge="1" parent="1" source="MRHMiCPDbe1n-ZCdfk0V-151" target="MRHMiCPDbe1n-ZCdfk0V-161">
          <mxGeometry relative="1" as="geometry" />
        </mxCell>
        <mxCell id="MRHMiCPDbe1n-ZCdfk0V-168" style="edgeStyle=orthogonalEdgeStyle;rounded=0;orthogonalLoop=1;jettySize=auto;html=1;exitX=0;exitY=0.75;exitDx=0;exitDy=0;entryX=1;entryY=0.75;entryDx=0;entryDy=0;" edge="1" parent="1" source="MRHMiCPDbe1n-ZCdfk0V-151" target="MRHMiCPDbe1n-ZCdfk0V-162">
          <mxGeometry relative="1" as="geometry" />
        </mxCell>
        <mxCell id="MRHMiCPDbe1n-ZCdfk0V-151" value="Back" style="shape=process;whiteSpace=wrap;html=1;backgroundOutline=1;" vertex="1" parent="1">
          <mxGeometry x="895" y="172.5" width="65" height="30" as="geometry" />
        </mxCell>
        <mxCell id="MRHMiCPDbe1n-ZCdfk0V-153" value="Marion" style="shape=parallelogram;perimeter=parallelogramPerimeter;whiteSpace=wrap;html=1;fixedSize=1;" vertex="1" parent="1">
          <mxGeometry x="1000" y="50" width="80" height="25" as="geometry" />
        </mxCell>
        <mxCell id="MRHMiCPDbe1n-ZCdfk0V-158" value="Freddy &lt;br&gt;Marion" style="shape=parallelogram;perimeter=parallelogramPerimeter;whiteSpace=wrap;html=1;fixedSize=1;" vertex="1" parent="1">
          <mxGeometry x="930" y="35" width="80" height="30" as="geometry" />
        </mxCell>
        <mxCell id="MRHMiCPDbe1n-ZCdfk0V-161" value="Freddy" style="shape=parallelogram;perimeter=parallelogramPerimeter;whiteSpace=wrap;html=1;fixedSize=1;" vertex="1" parent="1">
          <mxGeometry x="855" y="230" width="80" height="25" as="geometry" />
        </mxCell>
        <mxCell id="MRHMiCPDbe1n-ZCdfk0V-162" value="Freddy &lt;br&gt;Marion" style="shape=parallelogram;perimeter=parallelogramPerimeter;whiteSpace=wrap;html=1;fixedSize=1;" vertex="1" parent="1">
          <mxGeometry x="800" y="190" width="80" height="30" as="geometry" />
        </mxCell>
        <mxCell id="MRHMiCPDbe1n-ZCdfk0V-163" value="Marion" style="shape=parallelogram;perimeter=parallelogramPerimeter;whiteSpace=wrap;html=1;fixedSize=1;" vertex="1" parent="1">
          <mxGeometry x="990" y="190" width="80" height="25" as="geometry" />
        </mxCell>
      </root>
    </mxGraphModel>
  </diagram>
</mxfile>
